<svg width="18" height="24" viewBox="0 0 18 24" fill="none" xmlns="http://www.w3.org/2000/svg">
<path d="M18 3C18 1.34531 16.6547 0 15 0H3C1.34531 0 0 1.34531 0 3V21C0 22.6547 1.34531 24 3 24H15C16.6547 24 18 22.6547 18 21V3ZM12 9C12 10.6547 10.6547 12 9 12C7.34531 12 6 10.6547 6 9C6 7.34531 7.34531 6 9 6C10.6547 6 12 7.34531 12 9ZM3.75 16.7156C3.75 14.9391 5.18906 13.5 6.96563 13.5H11.0391C12.8156 13.5 14.2547 14.9391 14.2547 16.7156C14.2547 17.4234 13.6781 18 12.9703 18H5.03438C4.32656 18 3.75 17.4234 3.75 16.7156Z" fill="#3D7D99"/>
</svg>
