<svg width="18" height="22" viewBox="0 0 18 22" fill="none" xmlns="http://www.w3.org/2000/svg">
<g clip-path="url(#clip0_922_3621)">
<path d="M0.841687 21.9717C0.466121 21.8801 0.144265 21.5721 0.0356372 21.2003C0.00329057 21.0896 0 20.246 0 12.0676C0 3.15544 0.000482399 3.05538 0.0442084 2.91423C0.18141 2.47126 0.630605 2.13142 1.07894 2.13142C1.36045 2.13142 1.55816 2.335 1.53872 2.60487C1.52228 2.83314 1.37367 2.98662 1.13707 3.01969C1.08367 3.02715 1.01647 3.04475 0.987741 3.05879C0.863972 3.1193 0.872232 2.47402 0.872232 12.0818V20.9564L0.948273 21.0328L1.02431 21.1091H14.7196L14.785 21.0435C14.8263 21.002 14.8504 20.9545 14.8505 20.9144C14.851 20.6455 15.0975 20.4085 15.3422 20.4415C15.4917 20.4616 15.6209 20.5534 15.6869 20.6865C15.7535 20.8207 15.7592 20.9225 15.7113 21.1262C15.622 21.5068 15.3598 21.8052 14.9902 21.9469L14.8616 21.9963L7.91722 22.0001C1.97459 22.0034 0.953899 21.9994 0.841682 21.972L0.841687 21.9717ZM3.05583 19.7259C2.6676 19.6312 2.35123 19.3148 2.24839 18.9183C2.21792 18.8008 2.21415 17.8048 2.21415 9.87964C2.21415 0.121554 2.20372 0.874145 2.34292 0.585944C2.42221 0.421851 2.6242 0.219384 2.79499 0.132822C3.08152 -0.0124241 2.66201 -0.00336877 8.80523 0.0030926L14.3919 0.00896884L14.5202 0.0609933C14.5907 0.0896063 14.7065 0.15251 14.7774 0.200782C14.8483 0.249052 15.562 0.9432 16.3635 1.74333C17.8926 3.26993 17.8502 3.22255 17.9569 3.52374C17.9894 3.61549 17.9933 4.31384 17.9989 11.1036C18.0031 16.0811 17.9976 18.6458 17.9824 18.7723C17.9309 19.2018 17.6626 19.5428 17.2528 19.6995L17.1205 19.7501L10.1538 19.754C4.19185 19.7573 3.16815 19.7532 3.05593 19.7258L3.05583 19.7259ZM17.0353 18.8089L17.0981 18.7547L17.1038 11.5097L17.1095 4.26478L15.6165 4.26465C14.6437 4.26457 14.0941 4.25632 14.039 4.24097C13.9291 4.21031 13.8027 4.09746 13.7514 3.98423C13.7134 3.90007 13.7107 3.79655 13.7102 2.39508L13.7097 0.895975H3.22659L3.10867 1.01439V18.7444L3.22659 18.8628H16.9726L17.0353 18.8089ZM5.65796 15.4062C5.46652 15.3685 5.32369 15.2128 5.30542 15.0218C5.28501 14.8085 5.4142 14.6072 5.6076 14.551C5.66741 14.5337 6.94117 14.5285 9.99882 14.5332L14.3057 14.5398L14.3986 14.6016C14.497 14.6669 14.5685 14.7816 14.5931 14.9134C14.6321 15.1221 14.4675 15.3547 14.2474 15.4021C14.1188 15.4298 5.7979 15.4338 5.658 15.4062L5.65796 15.4062ZM5.65796 12.6438C5.46652 12.6061 5.32369 12.4504 5.30542 12.2594C5.28501 12.046 5.4142 11.8448 5.6076 11.7886C5.66741 11.7712 6.94117 11.7661 9.99882 11.7708L14.3057 11.7774L14.3986 11.8391C14.497 11.9045 14.5685 12.0192 14.5931 12.151C14.6321 12.3597 14.4675 12.5923 14.2474 12.6397C14.1188 12.6674 5.7979 12.6714 5.658 12.6438L5.65796 12.6438ZM5.55764 9.84771C5.47343 9.80985 5.35536 9.68612 5.32418 9.60305C5.24702 9.39753 5.34739 9.15141 5.55116 9.04647C5.63189 9.0049 5.75112 9.00375 9.94591 9.00423C14.1088 9.00471 14.2608 9.00617 14.3497 9.0467C14.5291 9.1285 14.6378 9.36317 14.5828 9.54997C14.5456 9.67665 14.4632 9.78095 14.3579 9.83492C14.2716 9.87912 14.2207 9.87962 9.94772 9.87875C6.37942 9.87803 5.61302 9.87261 5.55767 9.84771L5.55764 9.84771ZM5.55764 7.08208C5.26658 6.92924 5.21391 6.57294 5.44935 6.34943C5.48431 6.31625 5.54124 6.27835 5.57587 6.26521C5.61864 6.24898 6.28139 6.24133 7.64324 6.24133C9.64 6.24133 9.64788 6.24151 9.74551 6.28896C9.80454 6.31766 9.86737 6.37282 9.90353 6.42769C9.9546 6.50518 9.96356 6.54274 9.96356 6.67927C9.96356 6.86213 9.91668 6.95582 9.77712 7.05186L9.69847 7.10599L7.66162 7.11166C5.84753 7.1167 5.6174 7.11347 5.55768 7.08209L5.55764 7.08208ZM16.729 3.35837C16.729 3.35388 16.251 2.87776 15.6667 2.30035L14.6043 1.25049V3.36661H15.6667C16.251 3.36661 16.729 3.36293 16.729 3.35844V3.35837Z" fill="#4D4D4D"/>
</g>
<defs>
<clipPath id="clip0_922_3621">
<rect width="18" height="22" fill="white"/>
</clipPath>
</defs>
</svg>
