<svg width="16" height="17" viewBox="0 0 16 17" fill="none" xmlns="http://www.w3.org/2000/svg">
<path d="M14.9755 5.70652L10.3362 4.96716L8.26231 0.356665C8.20566 0.230432 8.11247 0.128244 7.99736 0.0661293C7.70866 -0.0901587 7.35783 0.0400813 7.21348 0.356665L5.13958 4.96716L0.500265 5.70652C0.372359 5.72656 0.255417 5.79268 0.165883 5.89287C0.0576417 6.01486 -0.0020043 6.179 5.14289e-05 6.34919C0.00210715 6.51939 0.0656964 6.68173 0.176847 6.80054L3.53345 10.3892L2.74044 15.4565C2.72184 15.5744 2.73374 15.6956 2.77478 15.8064C2.81582 15.9173 2.88435 16.0133 2.97262 16.0836C3.06089 16.1539 3.16536 16.1957 3.27417 16.2042C3.38299 16.2127 3.4918 16.1876 3.58827 16.1317L7.73789 13.7393L11.8875 16.1317C12.0008 16.1979 12.1324 16.2199 12.2584 16.1959C12.5764 16.1357 12.7902 15.8051 12.7353 15.4565L11.9423 10.3892L15.2989 6.80054C15.3903 6.70236 15.4506 6.57412 15.4689 6.43386C15.5182 6.08322 15.2953 5.75862 14.9755 5.70652V5.70652Z" fill="#D5D7DE"/>
</svg>
