<svg width="16" height="17" viewBox="0 0 16 17" fill="none" xmlns="http://www.w3.org/2000/svg">
<path fill-rule="evenodd" clip-rule="evenodd" d="M3.8213 17H2.88466C2.83821 16.9442 2.80092 16.8796 2.77478 16.809C2.73374 16.6982 2.72184 16.5769 2.74044 16.4591L3.53345 11.3917L0.176847 7.8031C0.0656964 7.68429 0.00210715 7.52195 5.14289e-05 7.35176C-0.0020043 7.18156 0.0576417 7.01743 0.165883 6.89543C0.255417 6.79525 0.372359 6.72912 0.500265 6.70909L5.13958 5.96973L7.21348 1.35923C7.35783 1.04264 7.70866 0.912405 7.99736 1.06869C7.99824 1.06917 7.99912 1.06965 8 1.07013V14.893L7.73789 14.7419L3.8213 17Z" fill="#FFCF88"/>
<path fill-rule="evenodd" clip-rule="evenodd" d="M11.6544 17H12.591C12.6375 16.9443 12.6748 16.8797 12.7009 16.8091C12.742 16.6982 12.7539 16.577 12.7353 16.4591L11.9423 11.3918L15.2989 7.80317C15.41 7.68436 15.4736 7.52202 15.4757 7.35183C15.4777 7.18163 15.4181 7.0175 15.3098 6.8955C15.2203 6.79532 15.1034 6.72919 14.9754 6.70916L10.3361 5.9698L8.26223 1.3593C8.20322 1.22987 8.10969 1.13158 8 1.07129V14.8931L11.6544 17Z" fill="#FFCF88" fill-opacity="0.66"/>
</svg>
