<svg width="17" height="16" viewBox="0 0 17 16" fill="none" xmlns="http://www.w3.org/2000/svg">
<path d="M16.2824 13.833L13.1666 10.7177C13.0259 10.5771 12.8353 10.499 12.6353 10.499H12.1259C12.9884 9.39596 13.501 8.00859 13.501 6.49937C13.501 2.90909 10.5914 0 7.00048 0C3.40959 0 0.5 2.90909 0.5 6.49937C0.5 10.0896 3.40959 12.9987 7.00048 12.9987C8.50996 12.9987 9.89756 12.4863 11.0008 11.6239V12.1332C11.0008 12.3332 11.0789 12.5238 11.2195 12.6644L14.3354 15.7797C14.6292 16.0734 15.1042 16.0734 15.3948 15.7797L16.2793 14.8954C16.5731 14.6017 16.5731 14.1267 16.2824 13.833ZM7.00048 10.499C4.79094 10.499 3.00018 8.71165 3.00018 6.49937C3.00018 4.29021 4.78781 2.49976 7.00048 2.49976C9.21001 2.49976 11.0008 4.28708 11.0008 6.49937C11.0008 8.70852 9.21314 10.499 7.00048 10.499Z" fill="#989DA5" fill-opacity="0.5"/>
</svg>
