<svg width="70" height="70" viewBox="0 0 70 70" fill="none" xmlns="http://www.w3.org/2000/svg">
<path d="M24.5581 3.05054L22.3152 8.05772C21.8742 8.00469 21.4305 7.9762 20.9863 7.97241C19.5403 7.96339 18.1348 8.2196 16.8205 8.69429L13.6418 4.24259L7.62207 8.63892L10.9119 13.2405C9.89753 14.7029 9.22043 16.3723 8.92952 18.1282L3.08889 18.769L3.81965 26.1859L10.036 25.5024C10.7319 26.8991 11.6875 28.1504 12.8516 29.1897L10.1984 35.1198L16.9489 38.1405L19.6149 32.1845C21.2085 32.3543 22.7704 32.202 24.2292 31.7743L28.0742 37.0421L32.411 33.8721L34.0044 36.6278C31.994 38.1649 30.1966 39.9622 28.6595 41.9726L21.9302 38.0974L18.4141 44.4849L24.9937 48.3044C24.0112 50.6571 23.3515 53.132 23.0327 55.6616H15.3809V63.0061H23.0672C23.2916 64.633 23.6589 66.237 24.165 67.7994H47.3132C44.0435 66.3286 41.7676 63.0433 41.7676 59.2249C41.7676 54.0345 45.9722 49.8254 51.1629 49.8254C56.3531 49.8254 60.5623 54.0345 60.5623 59.2249C60.5623 63.0434 58.2832 66.3288 55.0122 67.7996H67.522V27.395L65.924 26.5191L62.1515 33.0859C59.8122 32.0843 57.3469 31.4072 54.8242 31.0734V23.4814H47.4797V31.0652C44.9773 31.3901 42.5811 32.0472 40.3279 32.9833L36.6193 26.5193L31.6974 29.2878L30.4328 27.5146C31.4226 26.2256 32.1432 24.7508 32.5519 23.1779L38.6273 22.5157L37.8969 15.0987L32.1206 15.6671C31.4494 13.9441 30.3944 12.3968 29.0358 11.1425L31.3086 6.07106L24.5581 3.05054ZM20.8197 14.5691C24.0052 14.5363 26.6904 17.0064 26.8867 20.2215C27.089 23.5403 24.5619 26.3935 21.243 26.596C17.9237 26.7987 15.0708 24.2753 14.8683 20.9563C14.666 17.6376 17.1888 14.7846 20.508 14.5819C20.6119 14.5757 20.7171 14.5702 20.8197 14.5691Z" fill="#3D7D99"/>
</svg>
