<svg width="37" height="36" viewBox="0 0 37 36" fill="none" xmlns="http://www.w3.org/2000/svg">
<path d="M30.2703 18.6047L31.9859 9.19687C32.0159 9.0353 32.0086 8.86902 31.9648 8.71065C31.9209 8.55229 31.8416 8.40598 31.7328 8.28281C31.6289 8.15565 31.498 8.05313 31.3497 7.98261C31.2014 7.91209 31.0392 7.87534 30.875 7.875H8.19219L7.50312 4.09219C7.40794 3.57574 7.13511 3.10884 6.73189 2.7724C6.32867 2.43595 5.82046 2.25115 5.29531 2.25H2.75C2.45163 2.25 2.16548 2.36853 1.9545 2.5795C1.74353 2.79048 1.625 3.07663 1.625 3.375C1.625 3.67337 1.74353 3.95952 1.9545 4.1705C2.16548 4.38147 2.45163 4.5 2.75 4.5H5.29531L9.14844 25.7344C8.59907 26.2183 8.19549 26.8457 7.98301 27.5463C7.77053 28.2469 7.75757 28.9928 7.94558 29.7003C8.13359 30.4079 8.51513 31.049 9.04735 31.5516C9.57957 32.0543 10.2414 32.3987 10.9585 32.546C11.6756 32.6934 12.4196 32.6379 13.1069 32.3858C13.7942 32.1337 14.3976 31.695 14.8494 31.1189C15.3012 30.5429 15.5834 29.8522 15.6644 29.1247C15.7453 28.3971 15.6219 27.6613 15.3078 27H22.8172C22.4515 27.7708 22.3462 28.6396 22.5169 29.4755C22.6877 30.3114 23.1253 31.0693 23.764 31.635C24.4026 32.2007 25.2077 32.5436 26.0581 32.6122C26.9086 32.6808 27.7582 32.4714 28.4793 32.0154C29.2004 31.5593 29.7539 30.8815 30.0564 30.0837C30.3589 29.286 30.3942 28.4116 30.1568 27.5921C29.9194 26.7726 29.4223 26.0523 28.7403 25.5398C28.0583 25.0272 27.2282 24.7501 26.375 24.75H11.2578L10.6391 21.375H26.9516C27.7415 21.3746 28.5063 21.0972 29.1127 20.5909C29.7191 20.0847 30.1288 19.3818 30.2703 18.6047ZM13.4375 28.6875C13.4375 29.0213 13.3385 29.3475 13.1531 29.625C12.9677 29.9025 12.7041 30.1188 12.3958 30.2465C12.0874 30.3743 11.7481 30.4077 11.4208 30.3426C11.0934 30.2775 10.7928 30.1167 10.5568 29.8807C10.3208 29.6447 10.16 29.3441 10.0949 29.0167C10.0298 28.6894 10.0632 28.3501 10.191 28.0417C10.3187 27.7334 10.535 27.4698 10.8125 27.2844C11.09 27.099 11.4162 27 11.75 27C12.1976 27 12.6268 27.1778 12.9432 27.4943C13.2597 27.8107 13.4375 28.2399 13.4375 28.6875ZM28.0625 28.6875C28.0625 29.0213 27.9635 29.3475 27.7781 29.625C27.5927 29.9025 27.3291 30.1188 27.0208 30.2465C26.7124 30.3743 26.3731 30.4077 26.0458 30.3426C25.7184 30.2775 25.4178 30.1167 25.1818 29.8807C24.9458 29.6447 24.785 29.3441 24.7199 29.0167C24.6548 28.6894 24.6882 28.3501 24.816 28.0417C24.9437 27.7334 25.16 27.4698 25.4375 27.2844C25.715 27.099 26.0412 27 26.375 27C26.8226 27 27.2518 27.1778 27.5682 27.4943C27.8847 27.8107 28.0625 28.2399 28.0625 28.6875ZM8.6 10.125H29.525L28.0625 18.1969C28.0162 18.4576 27.8794 18.6936 27.6761 18.8634C27.4729 19.0331 27.2164 19.1258 26.9516 19.125H10.2312L8.6 10.125Z" fill="#A9D2E3"/>
</svg>
