<svg width="131" height="128" viewBox="0 0 131 128" fill="none" xmlns="http://www.w3.org/2000/svg">
<path d="M57.8444 13.4027C62.7719 11.4488 68.2839 11.4488 73.2115 13.4027L114.099 29.616C115.861 30.3137 117.369 31.5098 118.431 33.051C119.493 34.5921 120.06 36.4083 120.06 38.2667V88C120.071 80.5119 117.143 73.3052 111.88 67.8667V41.456L69.6178 57.4134V66.544C65.8134 70.0089 62.9947 74.3811 61.438 79.232V57.408L19.1759 41.3334V89.7494C19.1766 90.0141 19.2579 90.2727 19.4094 90.4921C19.5609 90.7115 19.7757 90.8818 20.0266 90.9814L60.92 107.195C61.0509 107.248 61.1817 107.301 61.3126 107.344L62.4687 107.803C64.2677 108.518 66.2684 108.584 68.1127 107.989C70.2613 110.251 72.7698 112.176 75.5509 113.68L73.206 114.608C68.2801 116.561 62.7704 116.561 57.8444 114.608L16.9564 98.3947C15.1952 97.697 13.6871 96.5009 12.6252 94.9598C11.5633 93.4186 10.9961 91.6025 10.9961 89.744V38.272C10.9961 36.4136 11.5633 34.5975 12.6252 33.0563C13.6871 31.5151 15.1952 30.3191 16.9564 29.6214L57.8444 13.408V13.4027ZM70.1359 20.816C67.1806 19.6448 63.8752 19.6448 60.92 20.816L50.4771 24.96L91.5233 40.5707L106.078 35.0774L70.1304 20.8214L70.1359 20.816ZM80.2024 44.8427L39.4344 29.3334L25.1198 35.008L65.5334 50.3787L80.2024 44.8427ZM120.06 88.336V88.0054V88.336ZM110.07 101.909C113.635 97.0047 115.186 90.9689 114.416 84.9983C113.646 79.0276 110.61 73.5579 105.911 69.673C101.211 65.7882 95.1913 63.7718 89.0435 64.0235C82.8957 64.2752 77.0689 66.7766 72.7179 71.032C68.3669 75.2873 65.8093 80.9861 65.552 86.9988C65.2946 93.0115 67.3563 98.8993 71.3284 103.495C75.3006 108.092 80.8932 111.06 86.998 111.814C93.1028 112.567 99.2742 111.05 104.289 107.563L118.533 121.499C118.907 121.892 119.359 122.207 119.861 122.426C120.362 122.644 120.904 122.762 121.453 122.771C122.002 122.781 122.548 122.682 123.057 122.481C123.566 122.28 124.029 121.98 124.417 121.6C124.805 121.22 125.112 120.768 125.317 120.27C125.523 119.772 125.624 119.238 125.614 118.701C125.605 118.164 125.484 117.634 125.261 117.144C125.037 116.653 124.715 116.212 124.313 115.845L110.07 101.909ZM106.427 88.0054C106.427 92.2488 104.703 96.3185 101.635 99.3191C98.5672 102.32 94.4061 104.005 90.0673 104.005C85.7284 104.005 81.5673 102.32 78.4993 99.3191C75.4313 96.3185 73.7077 92.2488 73.7077 88.0054C73.7077 83.7619 75.4313 79.6922 78.4993 76.6917C81.5673 73.6911 85.7284 72.0054 90.0673 72.0054C94.4061 72.0054 98.5672 73.6911 101.635 76.6917C104.703 79.6922 106.427 83.7619 106.427 88.0054Z" fill="#3D7D99"/>
</svg>
