<svg width="37" height="36" viewBox="0 0 37 36" fill="none" xmlns="http://www.w3.org/2000/svg">
<path d="M3.5 6V27L10.7 21.6C11.219 21.21 11.8505 21 12.5 21H24.5C25.2956 21 26.0587 20.6839 26.6213 20.1213C27.1839 19.5587 27.5 18.7956 27.5 18V6C27.5 5.20435 27.1839 4.44129 26.6213 3.87868C26.0587 3.31607 25.2956 3 24.5 3H6.5C5.70435 3 4.94129 3.31607 4.37868 3.87868C3.81607 4.44129 3.5 5.20435 3.5 6ZM6.5 21V6H24.5V18H11.501C10.8516 17.9983 10.2195 18.209 9.701 18.6L6.5 21Z" fill="#4D4D4D"/>
<path d="M33.5 33V13.5C33.5 12.7044 33.1839 11.9413 32.6213 11.3787C32.0587 10.8161 31.2956 10.5 30.5 10.5V27L27.299 24.6C26.7805 24.209 26.1484 23.9983 25.499 24H11C11 24.394 11.0776 24.7841 11.2284 25.1481C11.3791 25.512 11.6001 25.8427 11.8787 26.1213C12.1573 26.3999 12.488 26.6209 12.852 26.7716C13.2159 26.9224 13.606 27 14 27H24.5C25.1495 27 25.781 27.21 26.3 27.6L33.5 33Z" fill="#4D4D4D"/>
</svg>
