<svg width="90" height="73" viewBox="0 0 90 73" fill="none" xmlns="http://www.w3.org/2000/svg">
<g clip-path="url(#clip0_13_645)">
<path d="M89.5 0.533691V56.7837C89.5 65.4884 82.533 72.5337 73.925 72.5337C65.4422 72.5337 58.5586 65.6853 58.35 57.1634L7.23063 71.254C4.85266 71.9009 2.41907 70.4946 1.76547 68.0899C1.11188 65.6853 2.51641 63.2243 4.89438 62.5634L49.45 50.2868V9.53369C49.45 4.56963 53.4411 0.533691 58.35 0.533691H89.5ZM80.6 56.7837C80.6 53.0571 77.6102 50.0337 73.925 50.0337C70.2399 50.0337 67.25 53.0571 67.25 56.7837C67.25 60.5103 70.2399 63.5337 73.925 63.5337C77.6102 63.5337 80.6 60.5103 80.6 56.7837ZM3.71235 29.7415C3.07266 27.3368 4.4911 24.8759 6.85516 24.229L13.3077 22.4853L16.1863 33.3556C16.5061 34.5509 17.7298 35.2681 18.9119 34.9446L23.2089 33.7774C24.3909 33.454 25.1002 32.2165 24.7803 31.0212L21.9017 20.1509L28.3542 18.4071C30.7322 17.7603 33.1658 19.1946 33.8055 21.5853L39.5627 43.3118C40.2024 45.7165 38.7839 48.1774 36.4198 48.8243L14.9208 54.6603C12.5428 55.3071 10.1092 53.8728 9.46954 51.4821L3.71235 29.7415Z" fill="#3D7D99"/>
</g>
<defs>
<clipPath id="clip0_13_645">
<rect width="89" height="72" fill="white" transform="translate(0.5 0.533691)"/>
</clipPath>
</defs>
</svg>
