<svg width="22" height="20" viewBox="0 0 22 20" fill="none" xmlns="http://www.w3.org/2000/svg">
<g clip-path="url(#clip0_963_3629)">
<path d="M15.3656 13.4724L16.5878 12.2224C16.7788 12.0271 17.1111 12.1638 17.1111 12.4451V18.1248C17.1111 19.1599 16.2899 19.9998 15.2778 19.9998H1.83333C0.821181 19.9998 0 19.1599 0 18.1248V4.37478C0 3.33962 0.821181 2.49978 1.83333 2.49978H12.2795C12.5507 2.49978 12.6882 2.83572 12.4972 3.03493L11.275 4.28493C11.2177 4.34353 11.1413 4.37478 11.0573 4.37478H1.83333V18.1248H15.2778V13.6912C15.2778 13.6092 15.3083 13.531 15.3656 13.4724ZM21.3469 5.58962L11.317 15.8474L7.86424 16.2381C6.86354 16.3513 6.01181 15.4881 6.12257 14.4568L6.50451 10.9256L16.5344 0.667747C17.409 -0.226784 18.8222 -0.226784 19.6931 0.667747L21.3431 2.35525C22.2177 3.24978 22.2177 4.699 21.3469 5.58962V5.58962ZM17.5733 6.79665L15.3542 4.52712L8.25764 11.7888L7.97882 14.3396L10.4729 14.0545L17.5733 6.79665ZM20.0483 3.68337L18.3983 1.99587C18.2417 1.83572 17.9858 1.83572 17.833 1.99587L16.6528 3.2029L18.8719 5.47243L20.0521 4.2654C20.2049 4.10134 20.2049 3.84353 20.0483 3.68337V3.68337Z" fill="#404040"/>
</g>
<defs>
<clipPath id="clip0_963_3629">
<rect width="22" height="20" fill="white"/>
</clipPath>
</defs>
</svg>
