<svg width="16" height="17" viewBox="0 0 16 17" fill="none" xmlns="http://www.w3.org/2000/svg">
<path fill-rule="evenodd" clip-rule="evenodd" d="M3.8213 16.2031H2.88466C2.83821 16.1473 2.80092 16.0827 2.77478 16.0121C2.73374 15.9013 2.72184 15.7801 2.74044 15.6622L3.53345 10.5948L0.176847 7.00623C0.0656964 6.88742 0.00210715 6.72508 5.14289e-05 6.55488C-0.0020043 6.38468 0.0576417 6.22055 0.165883 6.09856C0.255417 5.99837 0.372359 5.93225 0.500265 5.91221L5.13958 5.17285L7.21348 0.562353C7.35783 0.24577 7.70866 0.11553 7.99736 0.271818C7.99824 0.272293 7.99912 0.272771 8 0.273252V14.0961L7.73789 13.945L3.8213 16.2031Z" fill="#FFCF88" fill-opacity="0.44"/>
<path fill-rule="evenodd" clip-rule="evenodd" d="M11.6544 16.2031H12.5911C12.6375 16.1474 12.6748 16.0828 12.7009 16.0122C12.742 15.9014 12.7539 15.7801 12.7353 15.6622L11.9423 10.5949L15.2989 7.0063C15.41 6.88749 15.4736 6.72515 15.4757 6.55495C15.4777 6.38475 15.4181 6.22062 15.3098 6.09863C15.2203 5.99844 15.1034 5.93232 14.9755 5.91228L10.3361 5.17292L8.26224 0.562423C8.20322 0.43299 8.10969 0.334705 8 0.274414V14.0962L11.6544 16.2031Z" fill="#FFCF88" fill-opacity="0.44"/>
</svg>
