<svg width="15" height="15" viewBox="0 0 15 15" fill="none" xmlns="http://www.w3.org/2000/svg">
<path d="M5.375 1.125H1.83333C1.44213 1.125 1.125 1.44213 1.125 1.83333V5.375C1.125 5.7662 1.44213 6.08333 1.83333 6.08333H5.375C5.7662 6.08333 6.08333 5.7662 6.08333 5.375V1.83333C6.08333 1.44213 5.7662 1.125 5.375 1.125Z" stroke="#3D7D99" stroke-width="2" stroke-linecap="round" stroke-linejoin="round"/>
<path d="M5.375 8.91663H1.83333C1.44213 8.91663 1.125 9.23376 1.125 9.62496V13.1666C1.125 13.5578 1.44213 13.875 1.83333 13.875H5.375C5.7662 13.875 6.08333 13.5578 6.08333 13.1666V9.62496C6.08333 9.23376 5.7662 8.91663 5.375 8.91663Z" stroke="#3D7D99" stroke-width="2" stroke-linecap="round" stroke-linejoin="round"/>
<path d="M13.1667 1.125H9.62508C9.23388 1.125 8.91675 1.44213 8.91675 1.83333V5.375C8.91675 5.7662 9.23388 6.08333 9.62508 6.08333H13.1667C13.558 6.08333 13.8751 5.7662 13.8751 5.375V1.83333C13.8751 1.44213 13.558 1.125 13.1667 1.125Z" stroke="#3D7D99" stroke-width="2" stroke-linecap="round" stroke-linejoin="round"/>
<path d="M13.1667 8.91663H9.62508C9.23388 8.91663 8.91675 9.23376 8.91675 9.62496V13.1666C8.91675 13.5578 9.23388 13.875 9.62508 13.875H13.1667C13.558 13.875 13.8751 13.5578 13.8751 13.1666V9.62496C13.8751 9.23376 13.558 8.91663 13.1667 8.91663Z" stroke="#3D7D99" stroke-width="2" stroke-linecap="round" stroke-linejoin="round"/>
</svg>
