<svg width="8" height="10" viewBox="0 0 8 10" fill="none" xmlns="http://www.w3.org/2000/svg">
<path d="M0.537335 9.53113C0.611477 9.5697 0.694722 9.58734 0.778135 9.58217C0.861547 9.57701 0.941978 9.54922 1.01079 9.5018L6.96913 5.3768C7.03001 5.33462 7.07976 5.27831 7.11413 5.2127C7.14849 5.14708 7.16644 5.07412 7.16644 5.00005C7.16644 4.92598 7.14849 4.85302 7.11413 4.7874C7.07976 4.72179 7.03001 4.66548 6.96913 4.6233L1.01079 0.498299C0.942031 0.450721 0.861564 0.42286 0.778103 0.417733C0.694643 0.412606 0.611371 0.430408 0.537302 0.469213C0.463234 0.508017 0.401193 0.566345 0.357896 0.63788C0.314599 0.709415 0.291696 0.791431 0.291668 0.875049V9.12505C0.291654 9.20871 0.31454 9.29078 0.357845 9.36237C0.401151 9.43395 0.463223 9.49231 0.537335 9.53113Z" fill="black"/>
</svg>
